<?xml version="1.0" encoding="UTF-8"?><svg xmlns="http://www.w3.org/2000/svg" width="163.59" height="171.253" ><defs><linearGradient x1="55.549" y1="77.07" x2="110.149" y2="131.853" id="A" gradientUnits="userSpaceOnUse"><stop offset="0" stop-color="#387eb8"/><stop offset="1" stop-color="#366994"/></linearGradient><linearGradient x1="89.137" y1="111.921" x2="147.777" y2="168.101" id="B" gradientUnits="userSpaceOnUse"><stop offset="0" stop-color="#ffe052"/><stop offset="1" stop-color="#ffc331"/></linearGradient></defs><path d="M67.974 35.032c-34.763 0-32.592 15.075-32.592 15.075l.039 15.618h33.173v4.689H22.244S0 67.891 0 102.967s19.416 33.832 19.416 33.832h11.587v-16.277s-.625-19.416 19.106-19.416H83.01s18.486.299 18.486-17.865V53.207c0 0 2.807-18.176-33.522-18.176zM49.682 45.534c3.3 0 5.968 2.668 5.968 5.968s-2.668 5.968-5.968 5.968-5.968-2.668-5.968-5.968 2.668-5.968 5.968-5.968z" fill="url(#A) #000000"/><path d="M68.961 171.254c34.763 0 32.592-15.075 32.592-15.075l-.039-15.618H68.341v-4.689h46.349s22.245 2.523 22.245-32.553-19.416-33.832-19.416-33.832h-11.587v16.277s.625 19.416-19.106 19.416H53.925s-18.486-.299-18.486 17.865v30.034s-2.807 18.176 33.522 18.176zm18.292-10.502c-3.3 0-5.968-2.668-5.968-5.968s2.668-5.968 5.968-5.968 5.968 2.668 5.968 5.968-2.668 5.968-5.968 5.968z" fill="url(#B) #000000"/><path d="M108.397 66.785l-2.44-2.244.004-28.463c.004-28.098.013-28.488.71-30.352 1.491-3.985 3.732-5.34 9.374-5.669 3.383-.197 4.43-.057 25.536 3.424l22.008 3.629v23.507c0 18.111-.099 23.832-.429 24.921-.527 1.736-2.261 4.067-3.608 4.849-.668.388-8.756 1.883-24.187 4.47l-23.856 4.029c-.472.099-1.398-.526-3.112-2.102zm30.706-7.788c.758 0 .798-.109.798-2.184 0-1.942-.073-2.184-.656-2.184-1.245 0-2.302-.753-2.891-2.058-.325-.72-.529-1.356-.454-1.414s.851-.514 1.724-1.014c4.335-2.482 6.279-8.051 6.291-18.026.015-11.998-3.006-17.686-10.169-19.147-2.252-.459-4.807-.213-6.812.657-2.994 1.299-5.275 4.776-6.397 9.754-.798 3.54-.788 13.23.017 16.968 1.182 5.483 3.97 9.547 7.317 10.662 1.24.413 1.412.618 1.933 2.288.81 2.597 1.534 3.858 2.688 4.679s3.439 1.37 4.845 1.162a14.71 14.71 0 0 1 1.764-.143zm-7.597-12.534c-1.024-.511-2.254-2.297-2.683-3.896-1.4-5.229-1.283-18.176.198-21.878.672-1.68 2.225-3.02 3.501-3.02 1.412 0 3.188 1.703 3.848 3.689 1.167 3.513 1.363 15.304.338 20.261-.815 3.941-2.977 5.953-5.202 4.844zm22.507 2.438c3.179-.706 3.36-.862 3.36-2.903 0-1.585-.079-1.807-.588-1.655-2.015.599-2.485.603-3.122.026-.622-.563-.658-1.082-.658-9.28v-8.684h2.016 2.016v-1.973-1.973l-2.016-.228-2.016-.228v-3.155c0-1.736-.113-3.225-.252-3.309s-.996-.207-1.906-.272l-1.654-.118-.576 2.352-.788 3.276c-.181.791-.381.924-1.381.924h-1.17v2.184 2.184h1.008 1.008v9.757c0 11.922.134 12.38 3.864 13.201 1.073.236 1.262.228 2.856-.126z" fill="#7cc040"/><path d="M108.222 66.463l-1.921-1.942V35.842l.39-29.981c.498-1.661 2.344-3.823 3.974-4.655.698-.356 2.307-.732 3.576-.836 1.707-.14 2.107-.101 1.536.15-1.662.729-3.116 2.179-4.008 3.994l-.932 1.898-.094 30.996-.347 30.996c-.139 0-1.117-.874-2.174-1.942zm23.878-7.532c-1.589-.422-3.349-2.35-4.112-4.503l-.851-2.34c-.16-.414-.812-.855-1.623-1.098-3.004-.9-5.808-4.94-7.025-10.123-.875-3.722-.85-14.997.04-18.327 1.361-5.092 3.947-8.393 7.371-9.41 2.207-.655 3.555-.617 1.679.048-3.16 1.12-5.485 4.168-6.893 9.036-.704 2.433-.772 3.322-.75 9.734.021 6.091.122 7.408.733 9.628 1.378 5.001 3.45 7.874 6.754 9.368 1.517.686 1.779.954 2.101 2.148.765 2.842 2.286 4.906 4.262 5.783.724.321.772.401.236.395-.37-.004-1.234-.157-1.921-.339zm15.896-10.118c-2.648-.928-3.055-2.821-3.055-14.198 0-7.673-.054-8.508-.562-8.606-.391-.076-.685-.721-.969-2.125-.224-1.109-.341-2.129-.259-2.268s.518-.252.969-.252c.791 0 .82.082.82 2.352v2.352h.989.989l.103 9.828c.114 10.909.2 11.364 2.387 12.698.839.512.928.652.404.638-.37-.01-1.187-.198-1.817-.419zm-15.4-3.173c1.895-1.979 2.601-5.706 2.601-13.743 0-7.694-.917-12.078-2.805-13.399-.685-.48-.676-.494.332-.494 3.439 0 4.722 4.755 4.394 16.296-.182 6.417-.603 8.948-1.789 10.758-.545.832-1.842 1.506-2.9 1.506-.694 0-.689-.032.166-.924zm21.921-1.428c.37-.159 1.126-.289 1.68-.289.859 0 .909.043.336.289-.37.159-1.126.289-1.68.289-.859 0-.909-.043-.336-.289zm-8.804-23.268c1.469-6.425 1.287-5.964 2.353-5.964.852 0 .959.101.791.744-.107.409-.449 1.921-.76 3.36-.551 2.548-.591 2.616-1.561 2.616-.86 0-.972-.103-.823-.756z" fill="#016123"/></svg>