<?xml version="1.0" encoding="UTF-8"?><svg xmlns="http://www.w3.org/2000/svg" width="978" height="272" viewBox="-0.5 -0.5 978 272" ><style><![CDATA[.B{pointer-events:all}.C{fill:#000}.D{font-family:Helvetica}.E{font-size:12px}.F{text-anchor:middle}.G{stroke:#b0b0b0}.H{stroke-miterlimit:10}.I{pointer-events:stroke}.J{fill:#b0b0b0}]]></style><ellipse cx="203.25" cy="135.5" rx="203.25" ry="135.5" fill="#d5e8d4" stroke="#82b366" class="B"/><ellipse cx="203.25" cy="208.34" rx="93.5" ry="62.335" fill="#fff2cc" stroke="#d6b656" class="B"/><text x="200.5" y="35.5" class="C D E F">Nonlocal Scope</text><text x="208.5" y="181.5" class="C D E F">Local Scope</text><path fill="#e1d5e7" stroke="#9673a6" d="M469 155h209v50H469z" class="B"/><text x="573.5" y="183.5" class="C D E F">0x0000017184915C40</text><g class="G H"><path d="M678 118h82.63" fill="none" class="I"/><path d="M765.88 118l-7 3.5 1.75-3.5-1.75-3.5z" class="B J"/></g><path fill="#e1d5e7" stroke="#9673a6" d="M469 81h209v74H469z" class="B"/><text x="573.5" y="121.5" class="C D E F">Cell</text><path fill="#f8cecc" stroke="#b85450" d="M767 155h209v50H767z" class="B"/><text x="871.5" y="183.5" class="C D E F">0x0000017186A829B0</text><path fill="#f8cecc" stroke="#b85450" d="M767 81h209v74H767z" class="B"/><text x="871.5" y="121.5" class="C D E F">'Hello'</text><g class="G H"><path d="M270.25 58h303.32v16.63" fill="none" class="I"/><path d="M573.57 79.88l-3.5-7 3.5 1.75 3.5-1.75z" class="B J"/></g><text x="202.5" y="61.5" class="C D E F">greeting</text><g class="G H"><path d="M276 232h297.57l-.05-20.63" fill="none" class="I"/><path d="M573.5 206.12l3.52 6.99-3.5-1.74-3.5 1.76z" class="B J"/></g><text x="208.5" y="235.5" class="C D E F">greeting</text></svg>