<?xml version="1.0" encoding="iso-8859-1"?><svg id="Capa_1" enable-background="new 0 0 512 512" height="512" viewBox="0 0 512 512" width="512" xmlns="http://www.w3.org/2000/svg"><g><g><path d="m380.192 57.701-159.582 10.769-159.801-10.9-.916-28.613c.001-11.05 8.147-21.457 19.197-21.457h237.1l10.666 2.06c2.66 0 5.2 1.06 7.08 2.94z" fill="#5f6c75"/><path d="m452.91 132.67v351.83c0 11.05-12.179 17.649-23.229 17.649l-347.489-.255c-11.05 0-20-8.95-20-20l-1.383-424.324h321.321l67.86 68.04c1.87 1.87 2.92 4.41 2.92 7.06z" fill="#f7f9fa"/><path d="m452.91 132.67v11.87h-100.72c-19.85 0-36-16.15-36-36v-50.97l13.491-7.762 49.021 10.553 69.212 65.702c.854.854 3.612 1.393 4.103 2.473.583 1.286.893 2.694.893 4.134z" fill="#dce6eb"/><path d="m79.09 7.5v50.07l-10 2.026-10-2.026v-30.07c0-11.05 8.95-20 20-20z" fill="#4e5a61"/><path d="m452.91 484.5c0 11.05-8.95 20-20 20h-353.82c-11.05 0-20-8.95-20-20v-24l10.955-66.181-10.955-53.819v-282.93h20v392.93c0 18.78 15.22 34 34 34z" fill="#e9edf1"/><path d="m59.5 460.5 8.734-62.544-8.734-57.456h241c5.523 0 10 4.477 10 10v100c0 5.523-4.477 10-10 10z" fill="#f5607b"/><path d="m80.59 460.5h-21.5v-120h20v110c0 3.48.52 6.84 1.5 10z" fill="#f2385a"/><path d="m378.702 57.57h-62.512v-50.07h11.85c1.33 0 2.63.265 3.832.765.106.044.212.09.316.138 0 0 .529 1.378 1.386 2.235z" fill="#4e5a61"/><path d="m452.01 128.54h-99.82c-11.05 0-20-8.95-20-20v-100.14c1.08.49 2.07 1.18 2.93 2.04l114.87 115.17c.85.85 1.54 1.85 2.02 2.93z" fill="#e9edf1"/><path d="m196 159.892v-.002h-20v130.72c0 4.989 7.417 9.546 19.635 13.042.125.036.237.077.364.113 14.659 4.13 36.107 6.735 60.001 6.735 44.183 0 80-8.906 80-19.892v-130.716z" fill="#f2385a"/><ellipse cx="256" cy="159.892" fill="#f5607b" rx="80" ry="19.892"/></g><g><path d="m452.914 364.224c4.143 0 7.5-3.357 7.5-7.5v-224.052c0-4.667-1.815-9.057-5.109-12.358l-114.874-115.17c-3.259-3.269-7.776-5.144-12.392-5.144h-248.953c-15.163 0-27.5 12.336-27.5 27.5v457c0 15.164 12.337 27.5 27.5 27.5h353.828c15.163 0 27.5-12.336 27.5-27.5v-92.644c0-4.143-3.357-7.5-7.5-7.5s-7.5 3.357-7.5 7.5v92.644c0 6.893-5.607 12.5-12.5 12.5h-353.828c-6.893 0-12.5-5.607-12.5-12.5v-16.5h92.414c4.143 0 7.5-3.357 7.5-7.5s-3.357-7.5-7.5-7.5h-92.414v-105h233.914c1.379 0 2.5 1.121 2.5 2.5v100c0 1.379-1.121 2.5-2.5 2.5h-106.5c-4.143 0-7.5 3.357-7.5 7.5s3.357 7.5 7.5 7.5h106.5c9.649 0 17.5-7.851 17.5-17.5v-100c0-9.649-7.851-17.5-17.5-17.5h-233.914v-267.926h36.372c4.143 0 7.5-3.357 7.5-7.5s-3.357-7.5-7.5-7.5h-36.372v-22.574c0-6.893 5.607-12.5 12.5-12.5h245.603v35.074h-186.657c-4.143 0-7.5 3.357-7.5 7.5s3.357 7.5 7.5 7.5h186.656v43.469c0 15.163 12.337 27.5 27.5 27.5h93.226v220.681c0 4.142 3.357 7.5 7.5 7.5zm-113.226-255.681v-82.902l95.157 95.402h-82.657c-6.892 0-12.5-5.607-12.5-12.5z"/><path d="m216.081 142.499c-.744-4.075-4.648-6.774-8.726-6.03-26.146 4.774-38.855 12.436-38.855 23.423v130.717c0 26.622 78.544 27.391 87.5 27.391s87.5-.769 87.5-27.392v-130.716c0-26.623-78.544-27.392-87.5-27.392-4.466 0-8.939.09-13.297.267-4.139.169-7.357 3.66-7.189 7.799.168 4.138 3.643 7.364 7.799 7.189 4.155-.169 8.424-.255 12.688-.255 18.799 0 36.886 1.675 50.929 4.716 12.903 2.794 18.802 5.954 20.899 7.676-15.093 9.819-47.833 12.176-71.828 12.392-23.524-.139-56.773-2.593-71.835-12.397 2.371-1.968 9.548-5.678 25.886-8.661 4.073-.746 6.773-4.652 6.029-8.727zm39.919 44.784c6.469 0 49.243-.403 72.5-10.66v113.342c-13.037 10.264-49.606 12.916-72.5 13.035-22.627-.03-59.621-2.859-72.5-13.036v-113.341c23.257 10.257 66.031 10.66 72.5 10.66z"/><path d="m268.981 438.007c6.502-3.608 10.542-10.543 10.542-18.098v-51.909c0-4.143-3.357-7.5-7.5-7.5s-7.5 3.357-7.5 7.5v51.909c0 2.107-1.081 4.017-2.821 4.982-3.28 1.821-7.039-1.657-7.292-1.897-2.924-2.885-7.632-2.882-10.554.02-2.938 2.92-2.952 7.669-.033 10.607 3.051 3.069 8.956 6.859 15.848 6.859 2.97 0 6.124-.705 9.31-2.473z"/><path d="m206.05 360.5h-18.866c-4.143 0-7.5 3.357-7.5 7.5v29.907.048 34.993c0 1.995.795 3.907 2.208 5.315 1.406 1.399 3.309 2.185 5.292 2.185h.033c.002 0 17.347-.077 22.128-.077 13.774 0 24.981-11.207 24.981-24.981 0-8.047-3.829-15.213-9.755-19.786 2.473-3.606 3.923-7.966 3.923-12.66 0-12.376-10.068-22.444-22.444-22.444zm0 15c4.104 0 7.444 3.34 7.444 7.444 0 4.105-3.34 7.445-7.444 7.445-1.39 0-4.012.008-6.868.018h-4.498v-14.907zm3.295 49.871c-2.688 0-9.337.024-14.661.046v-19.993c1.469-.006 3.011-.012 4.494-.017h10.167c5.504 0 9.981 4.479 9.981 9.982s-4.477 9.982-9.981 9.982z"/><path d="m90.477 400.525c0 22.042 17.933 39.975 39.975 39.975s39.975-17.933 39.975-39.975-17.933-39.974-39.975-39.974-39.975 17.932-39.975 39.974zm64.949 0c0 13.771-11.203 24.975-24.975 24.975s-24.975-11.203-24.975-24.975c0-13.771 11.203-24.974 24.975-24.974s24.975 11.204 24.975 24.974z"/></g></g></svg>