<?xml version="1.0" encoding="utf-8"?><svg id="Layer_1" data-name="Layer 1" xmlns="http://www.w3.org/2000/svg" viewBox="0 0 464.66 159"><defs><style>.cls-1{fill:#c7c7c7;}.cls-2{fill:#377dff;}.cls-3{fill:#fff;}</style></defs><title>logo-outline-v2-darkmode</title><path class="cls-1" d="M226.68,38.74a18.48,18.48,0,0,1-6.25,14.45Q213.88,59,202.71,59h-6.47V79.77H182.68V19.55h21.24Q226.69,19.55,226.68,38.74Zm-14.27.5q0-9.27-10.84-9.28h-5.33V48.73h5.33Q212.42,48.73,212.41,39.24Z"/><path class="cls-1" d="M275.1,36.77,257.63,83.21q-6.3,16.76-19,16.75a25.41,25.41,0,0,1-7.93-1.09V88.29a11.11,11.11,0,0,0,5.75,1.56A7.21,7.21,0,0,0,243.61,85l2.27-5.34L228.41,36.77H243.1l8,26.16a33.19,33.19,0,0,1,1.18,5.75h.17A45.19,45.19,0,0,1,253.85,63L262,36.77Z"/><path class="cls-1" d="M306.6,79.26c-2,1-5,1.56-8.86,1.56q-14,0-14-14.57V46.55h-7V36.77h7V27.49l13.23-3.78V36.77h9.66v9.78h-9.66V63.94q0,6.72,5.33,6.71a9,9,0,0,0,4.33-1.21Z"/><path class="cls-1" d="M355.35,79.77H342.12V55.33q0-9.45-6.89-9.45a7,7,0,0,0-5.83,2.81,10.26,10.26,0,0,0-2.06,6.55V79.77H314.07V16.11h13.27v27h.17q4.83-7.42,13.23-7.43,14.61,0,14.61,17.63Z"/><path class="cls-1" d="M409.81,57.68q0,10.58-6.17,16.8t-17.3,6.34q-10.8,0-16.92-6t-6.13-16.35q0-10.87,6.63-16.93,6.3-5.79,17-5.79,11.08,0,17.26,6.46Q409.82,48.15,409.81,57.68Zm-13.52.25q0-12-9.62-12A8.88,8.88,0,0,0,379.49,49q-2.73,3.23-2.73,9.28,0,12.39,10,12.38Q396.29,70.65,396.29,57.93Z"/><path class="cls-1" d="M459.91,79.77H446.68V55.87q0-10-7.14-10a7,7,0,0,0-5.69,2.69,10.15,10.15,0,0,0-2.2,6.67V79.77H418.38v-43h13.27v6.8h.17a15.14,15.14,0,0,1,13.81-7.85q14.28,0,14.28,17.72Z"/><path class="cls-1" d="M206.06,114.75h-8.39v24H191v-24h-8.34v-5.39h23.38Z"/><path class="cls-1" d="M245.75,126q0,13.25-12.35,13.25-12,0-12-12.94v-17h6.65v17.06q0,7.14,5.58,7.14t5.47-6.89V109.36h6.63Z"/><path class="cls-1" d="M284.56,114.75h-8.39v24h-6.65v-24h-8.34v-5.39h23.38Z"/><path class="cls-1" d="M325.68,123.86q0,7-4.05,11.19a13.86,13.86,0,0,1-10.49,4.23,13.68,13.68,0,0,1-10.23-4.06,14.75,14.75,0,0,1-4-10.77c0-4.6,1.32-8.34,4-11.19a13.94,13.94,0,0,1,10.79-4.39,13.38,13.38,0,0,1,10.16,4.1Q325.68,117.07,325.68,123.86Zm-7,.37c0-3.09-.67-5.49-2-7.18a6.29,6.29,0,0,0-5.27-2.48,6.67,6.67,0,0,0-5.62,2.72,11,11,0,0,0-2,6.81,10.61,10.61,0,0,0,2.18,7.08,6.56,6.56,0,0,0,5.25,2.38,6.67,6.67,0,0,0,5.31-2.32Q318.71,128.76,318.71,124.23Z"/><path class="cls-1" d="M364.9,138.77h-7.6l-3-7.57q-1.47-3.69-4-3.69h-1.43v11.26H342.3V109.36h10.5q10.71,0,10.71,8a7.86,7.86,0,0,1-1.83,5.27,9.23,9.23,0,0,1-4.81,2.83v.08q2.58.83,4.2,4.53Zm-8.36-20.59q0-3.86-4.62-3.86h-3v8.18h2.87a4.81,4.81,0,0,0,3.51-1.29A4.12,4.12,0,0,0,356.54,118.18Z"/><path class="cls-1" d="M387.41,138.77h-6.62V109.36h6.62Z"/><path class="cls-1" d="M431.72,138.77H424.5l-2.09-6.55H412l-2.07,6.55H402.7l10.7-29.41h7.86Zm-10.83-11.63-3.16-9.89a11.81,11.81,0,0,1-.49-2.64h-.17a11.62,11.62,0,0,1-.51,2.56l-3.2,10Z"/><path class="cls-1" d="M464.66,138.77H447.15V109.36h6.62v24h10.89Z"/><rect class="cls-2" width="159" height="159" rx="15"/><path class="cls-3" d="M117.64,64.19q0,12.36-8.73,20.16-9.15,8.15-24.73,8.14h-9v29H56.23v-84H85.88Q117.64,37.41,117.64,64.19Zm-19.92.7q0-12.95-15.12-13H75.16v26.2H82.6Q97.72,78.14,97.72,64.89Z"/></svg>