<?xml version="1.0" encoding="iso-8859-1"?>
<!-- Generator: Adobe Illustrator 19.0.0, SVG Export Plug-In . SVG Version: 6.00 Build 0)  -->
<svg version="1.1" id="Capa_1" xmlns="http://www.w3.org/2000/svg" xmlns:xlink="http://www.w3.org/1999/xlink" x="0px" y="0px"
	 viewBox="0 0 512 512" style="enable-background:new 0 0 512 512;" xml:space="preserve">
<path style="fill:#FFDECF;" d="M355.799,339.894l17.086-7.768c38.842-15.538,93.22-42.408,93.22-42.408
	c14.915-8.542,33.867-3.565,42.424,11.333c8.541,14.93,0,31.074-11.349,42.423c0,0-139.832,112.945-186.444,112.945
	c-46.61,0-186.442-31.073-186.442-31.073V285.515c77.683-12.896,104.251,7.768,217.515,43.97
	c6.221,2.641,10.409,6.373,13.049,10.894L355.799,339.894z"/>
<g>
	<path style="fill:#FFCDBE;" d="M508.529,301.052c-3.126-5.447-7.663-9.528-12.852-12.153c-1.895,8.663-7.435,16.902-14.036,23.502
		c0,0-124.293,110.094-170.905,110.094c-37.142,0-148.844-16.842-186.442-24.852v27.705c0,0,139.832,31.073,186.442,31.073
		c46.612,0,186.444-112.945,186.444-112.945C508.529,332.126,517.07,315.981,508.529,301.052z"/>
	<path style="fill:#FFCDBE;" d="M330.933,387.097c12.593,0,25.383-6.995,33.851-18.905c8.146-11.456,9.785-24.519,4.536-34.426
		l-13.52,6.13l-0.607,0.303c0.108,0.167,0.333,0.47,0.411,0.591c2.596,4.537,1.23,11.759-3.49,18.405
		c-5.189,7.313-14.764,13.868-24.444,12.077c-15.233-2.791-105.284-15.081-109.107-15.598c-4.204-0.607-8.163,2.398-8.739,6.646
		c-0.577,4.249,2.397,8.163,6.646,8.74c0.925,0.121,93.525,12.76,108.378,15.476C326.866,386.914,328.9,387.097,330.933,387.097z"/>
</g>
<path style="fill:#E6E9ED;" d="M116.526,269.978H93.221v170.451h23.305c4.273,0,7.768-3.393,7.768-7.54s0-11.036,0-15.309V293.283
	c0-4.273,0-11.264,0-15.537S120.799,269.978,116.526,269.978z"/>
<path style="fill:#656D78;" d="M93.221,432.66c0,4.273,0,11.264,0,15.537v0.455c0,4.273-3.496,7.768-7.768,7.768H7.768
	c-4.273,0-7.768-3.496-7.768-7.768V262.209c0-4.273,3.496-7.768,7.768-7.768h77.684c4.273,0,7.768,3.496,7.768,7.768v0.001
	c0,4.273,0,11.264,0,15.537V432.66z"/>
<path style="fill:#FFCE54;" d="M62.951,448.652h-0.168c-4.279,0-7.677,3.49-7.677,7.768H70.72
	C70.72,452.141,67.23,448.652,62.951,448.652z"/>
<path style="fill:#ED5565;" d="M400.848,74.22c-24.852-24.853-65.258-24.853-90.111,0c-24.852-24.853-65.258-24.853-90.11,0
	c-24.869,24.852-24.869,65.258,0,90.126l67.578,67.579l16.294,16.142h0.008c1.415,1.904,3.675,3.143,6.23,3.143
	c2.543,0,4.794-1.227,6.211-3.116h0.009l83.891-83.748C425.716,139.478,425.716,99.072,400.848,74.22z"/>
<path style="fill:#DA4453;" d="M400.848,74.22c-16.405-16.405-39.582-21.974-60.593-16.723c10.821,2.704,21.068,8.273,29.517,16.723
	c24.869,24.852,24.869,65.258,0,90.126l-74.604,74.476l9.332,9.244h0.008c1.415,1.904,3.675,3.143,6.23,3.143
	c2.543,0,4.794-1.227,6.211-3.116h0.009l83.891-83.748C425.716,139.478,425.716,99.072,400.848,74.22z"/>
<g>
</g>
<g>
</g>
<g>
</g>
<g>
</g>
<g>
</g>
<g>
</g>
<g>
</g>
<g>
</g>
<g>
</g>
<g>
</g>
<g>
</g>
<g>
</g>
<g>
</g>
<g>
</g>
<g>
</g>
</svg>
