<?xml version="1.0" encoding="UTF-8"?>
<!DOCTYPE svg PUBLIC "-//W3C//DTD SVG 1.1//EN" "http://www.w3.org/Graphics/SVG/1.1/DTD/svg11.dtd">
<svg xmlns="http://www.w3.org/2000/svg" xmlns:xlink="http://www.w3.org/1999/xlink" version="1.1" width="102px" height="240px" viewBox="-0.5 -0.5 102 240"><defs/><g><path d="M 0 123 L 0 97 L 100 97 L 100 123" fill="#f8cecc" stroke="#b85450" stroke-miterlimit="10" pointer-events="all"/><path d="M 0 123 L 0 149 L 100 149 L 100 123" fill="none" stroke="#b85450" stroke-miterlimit="10" pointer-events="none"/><path d="M 0 123 L 100 123" fill="none" stroke="#b85450" stroke-miterlimit="10" pointer-events="none"/><g fill="#000000" font-family="Helvetica" font-weight="bold" pointer-events="none" text-anchor="middle" font-size="12px"><text x="49.5" y="114.5">LookupError</text></g><rect x="0" y="123" width="100" height="26" fill="#f8cecc" stroke="#b85450" pointer-events="none"/><path d="M 0 33 L 0 7 L 100 7 L 100 33" fill="#f8cecc" stroke="#b85450" stroke-miterlimit="10" pointer-events="none"/><path d="M 0 33 L 0 59 L 100 59 L 100 33" fill="none" stroke="#b85450" stroke-miterlimit="10" pointer-events="none"/><path d="M 0 33 L 100 33" fill="none" stroke="#b85450" stroke-miterlimit="10" pointer-events="none"/><g fill="#000000" font-family="Helvetica" font-weight="bold" pointer-events="none" text-anchor="middle" font-size="12px"><text x="49.5" y="24.5">Exception</text></g><rect x="0" y="33" width="100" height="26" fill="#f8cecc" stroke="#b85450" pointer-events="none"/><path d="M 50 97 L 50 77.12" fill="none" stroke="#b0b0b0" stroke-miterlimit="10" pointer-events="none"/><path d="M 50 60.12 L 58.5 77.12 L 41.5 77.12 Z" fill="none" stroke="#b0b0b0" stroke-miterlimit="10" pointer-events="none"/><path d="M 0 213 L 0 187 L 100 187 L 100 213" fill="#f8cecc" stroke="#b85450" stroke-miterlimit="10" pointer-events="none"/><path d="M 0 213 L 0 239 L 100 239 L 100 213" fill="none" stroke="#b85450" stroke-miterlimit="10" pointer-events="none"/><path d="M 0 213 L 100 213" fill="none" stroke="#b85450" stroke-miterlimit="10" pointer-events="none"/><g fill="#000000" font-family="Helvetica" font-weight="bold" pointer-events="none" text-anchor="middle" font-size="12px"><text x="49.5" y="204.5">IndexError</text></g><rect x="0" y="213" width="100" height="26" fill="#f8cecc" stroke="#b85450" pointer-events="none"/><path d="M 50 187 L 50 167.12" fill="none" stroke="#b0b0b0" stroke-miterlimit="10" pointer-events="none"/><path d="M 50 150.12 L 58.5 167.12 L 41.5 167.12 Z" fill="none" stroke="#b0b0b0" stroke-miterlimit="10" pointer-events="none"/></g></svg>