<?xml version="1.0" encoding="UTF-8"?>
<!DOCTYPE svg PUBLIC "-//W3C//DTD SVG 1.1//EN" "http://www.w3.org/Graphics/SVG/1.1/DTD/svg11.dtd">
<svg xmlns="http://www.w3.org/2000/svg" xmlns:xlink="http://www.w3.org/1999/xlink" version="1.1" width="125px" height="153px" viewBox="-0.5 -0.5 125 153"><defs/><g><path d="M 0 33 L 0 7 L 124 7 L 124 33" fill="#dae8fc" stroke="#6c8ebf" stroke-miterlimit="10" pointer-events="all"/><path d="M 0 33 L 0 59 L 124 59 L 124 33" fill="none" stroke="#6c8ebf" stroke-miterlimit="10" pointer-events="none"/><path d="M 0 33 L 124 33" fill="none" stroke="#6c8ebf" stroke-miterlimit="10" pointer-events="none"/><g fill="#000000" font-family="Helvetica" font-weight="bold" pointer-events="none" text-anchor="middle" font-size="12px"><text x="61.5" y="24.5">Exception</text></g><rect x="0" y="33" width="124" height="26" fill="#dae8fc" stroke="#6c8ebf" pointer-events="none"/><path d="M 62 100 L 62 77.12" fill="none" stroke="#b0b0b0" stroke-miterlimit="10" pointer-events="none"/><path d="M 62 60.12 L 70.5 77.12 L 53.5 77.12 Z" fill="none" stroke="#b0b0b0" stroke-miterlimit="10" pointer-events="none"/><path d="M 0 126 L 0 100 L 124 100 L 124 126" fill="#f8cecc" stroke="#b85450" stroke-miterlimit="10" pointer-events="none"/><path d="M 0 126 L 0 152 L 124 152 L 124 126" fill="none" stroke="#b85450" stroke-miterlimit="10" pointer-events="none"/><path d="M 0 126 L 124 126" fill="none" stroke="#b85450" stroke-miterlimit="10" pointer-events="none"/><g fill="#000000" font-family="Helvetica" font-weight="bold" pointer-events="none" text-anchor="middle" font-size="12px"><text x="61.5" y="117.5">CustomException</text></g><rect x="0" y="126" width="124" height="26" fill="#f8cecc" stroke="#b85450" pointer-events="none"/></g></svg>