<?xml version="1.0" encoding="UTF-8"?><svg xmlns="http://www.w3.org/2000/svg" width="300" height="382" fill="rgb(16.862745%,66.27451%,46.666667%)" ><path d="M134.512 0h62.438v286.109c-31.98 6.051-55.523 8.43-80.996 8.43C39.695 294.457 0 260.398 0 194.98 0 131.949 42.105 91.043 107.352 91.043c10.125 0 17.84.797 27.16 3.184zm2.188 145.785c-7.312-2.387-13.336-3.184-21.051-3.184-31.578 0-49.82 19.262-49.82 53.012 0 32.859 17.438 51.004 49.418 51.004 6.91 0 12.535-.387 21.453-1.582zm162.347-47.062v143.254c0 49.332-3.695 73.055-14.543 93.512-10.125 19.664-23.465 32.063-51.023 45.758l-57.937-27.297c27.563-12.805 40.898-24.121 49.418-41.391 8.918-17.66 11.73-38.113 11.73-91.91V98.727h62.355zM230.398 0h62.438v63.43h-62.437zm0 0"/></svg>